<svg width="79" height="14" viewBox="0 0 79 14" fill="none" xmlns="http://www.w3.org/2000/svg">
<path d="M5.01004 8.00001V11.23H3.23004V8.00001H4.39733e-05V6.24001H3.23004V3.02001H5.01004V6.24001H8.21004V8.00001H5.01004ZM19.8013 0.560009H21.9513L26.9313 13.76H24.6913L23.6013 10.74H18.1613L17.0613 13.76H14.8113L19.8013 0.560009ZM18.8413 8.87001H22.9213L20.8913 3.12001H20.8613L18.8413 8.87001ZM31.8008 14C31.0275 14 30.3442 13.8167 29.7508 13.45C29.1575 13.0833 28.6908 12.5733 28.3508 11.92C28.0175 11.2667 27.8508 10.5133 27.8508 9.66001C27.8508 8.80668 28.0175 8.05334 28.3508 7.40001C28.6908 6.74668 29.1575 6.23668 29.7508 5.87001C30.3442 5.49668 31.0275 5.31001 31.8008 5.31001C32.3742 5.31001 32.8842 5.41001 33.3308 5.61001C33.7775 5.80334 34.1342 6.03001 34.4008 6.29001C34.6675 6.55001 34.8242 6.78001 34.8708 6.98001V9.29832e-06H37.0108V13.76H34.9008V12.24C34.8075 12.4733 34.6175 12.7267 34.3308 13C34.0442 13.2733 33.6808 13.51 33.2408 13.71C32.8075 13.9033 32.3275 14 31.8008 14ZM32.3508 12.27C32.8175 12.27 33.2408 12.16 33.6208 11.94C34.0008 11.72 34.3042 11.4167 34.5308 11.03C34.7575 10.6367 34.8708 10.18 34.8708 9.66001C34.8708 9.14001 34.7575 8.68668 34.5308 8.30001C34.3042 7.90668 34.0008 7.60001 33.6208 7.38001C33.2408 7.15334 32.8175 7.04001 32.3508 7.04001C31.9242 7.04001 31.5275 7.15001 31.1608 7.37001C30.8008 7.58334 30.5108 7.88668 30.2908 8.28001C30.0708 8.67334 29.9608 9.13334 29.9608 9.66001C29.9608 10.1867 30.0708 10.6467 30.2908 11.04C30.5108 11.4333 30.8008 11.7367 31.1608 11.95C31.5275 12.1633 31.9242 12.27 32.3508 12.27ZM42.4844 14C41.7111 14 41.0278 13.8167 40.4344 13.45C39.8411 13.0833 39.3744 12.5733 39.0344 11.92C38.7011 11.2667 38.5344 10.5133 38.5344 9.66001C38.5344 8.80668 38.7011 8.05334 39.0344 7.40001C39.3744 6.74668 39.8411 6.23668 40.4344 5.87001C41.0278 5.49668 41.7111 5.31001 42.4844 5.31001C43.0578 5.31001 43.5678 5.41001 44.0144 5.61001C44.4611 5.80334 44.8178 6.03001 45.0844 6.29001C45.3511 6.55001 45.5078 6.78001 45.5544 6.98001V9.29832e-06H47.6944V13.76H45.5844V12.24C45.4911 12.4733 45.3011 12.7267 45.0144 13C44.7278 13.2733 44.3644 13.51 43.9244 13.71C43.4911 13.9033 43.0111 14 42.4844 14ZM43.0344 12.27C43.5011 12.27 43.9244 12.16 44.3044 11.94C44.6844 11.72 44.9878 11.4167 45.2144 11.03C45.4411 10.6367 45.5544 10.18 45.5544 9.66001C45.5544 9.14001 45.4411 8.68668 45.2144 8.30001C44.9878 7.90668 44.6844 7.60001 44.3044 7.38001C43.9244 7.15334 43.5011 7.04001 43.0344 7.04001C42.6078 7.04001 42.2111 7.15001 41.8444 7.37001C41.4844 7.58334 41.1944 7.88668 40.9744 8.28001C40.7544 8.67334 40.6444 9.13334 40.6444 9.66001C40.6444 10.1867 40.7544 10.6467 40.9744 11.04C41.1944 11.4333 41.4844 11.7367 41.8444 11.95C42.2111 12.1633 42.6078 12.27 43.0344 12.27ZM54.7061 0.560009H58.6461C59.3728 0.560009 60.0528 0.660009 60.6861 0.860009C61.3261 1.05334 61.8428 1.38334 62.2361 1.85001C62.6295 2.31001 62.8261 2.94668 62.8261 3.76001C62.8261 4.30668 62.7195 4.80001 62.5061 5.24001C62.2995 5.68001 62.0361 6.03668 61.7161 6.31001C61.3961 6.58334 61.0695 6.75001 60.7361 6.81001C61.0161 6.83668 61.3095 6.92334 61.6161 7.07001C61.9295 7.21001 62.2228 7.41001 62.4961 7.67001C62.7761 7.93001 63.0028 8.25668 63.1761 8.65001C63.3495 9.04334 63.4361 9.50334 63.4361 10.03C63.4361 10.7633 63.2828 11.41 62.9761 11.97C62.6695 12.53 62.2128 12.97 61.6061 13.29C60.9995 13.6033 60.2395 13.76 59.3261 13.76H54.7061V0.560009ZM56.8061 12.03H58.9861C59.5595 12.03 60.0061 11.9333 60.3261 11.74C60.6528 11.5467 60.8861 11.29 61.0261 10.97C61.1661 10.6433 61.2361 10.2867 61.2361 9.90001C61.2361 9.26668 61.0328 8.77001 60.6261 8.41001C60.2195 8.05001 59.6361 7.87001 58.8761 7.87001H56.8061V12.03ZM56.8061 6.17001H58.7061C59.1661 6.17001 59.5461 6.07668 59.8461 5.89001C60.1461 5.69668 60.3695 5.44334 60.5161 5.13001C60.6628 4.81001 60.7361 4.47668 60.7361 4.13001C60.7361 3.43001 60.5328 2.95001 60.1261 2.69001C59.7195 2.42334 59.1761 2.29001 58.4961 2.29001H56.8061V6.17001ZM65.6169 13.76V5.55001H67.7469V13.76H65.6169ZM66.7069 3.09001C66.3469 3.09001 66.0369 2.96001 65.7769 2.70001C65.5236 2.44001 65.3969 2.13001 65.3969 1.77001C65.3969 1.41001 65.5236 1.10001 65.7769 0.840009C66.0369 0.573343 66.3469 0.44001 66.7069 0.44001C66.9469 0.44001 67.1669 0.503343 67.3669 0.630009C67.5736 0.750009 67.7369 0.910009 67.8569 1.11001C67.9836 1.30334 68.0469 1.52334 68.0469 1.77001C68.0469 2.13001 67.9169 2.44001 67.6569 2.70001C67.3969 2.96001 67.0803 3.09001 66.7069 3.09001ZM75.1521 5.31001C75.7054 5.31001 76.2421 5.42334 76.7621 5.65001C77.2821 5.87668 77.7087 6.24001 78.0421 6.74001C78.3821 7.23334 78.5521 7.87668 78.5521 8.67001V13.76H76.4021V9.06001C76.4021 8.32001 76.2254 7.77668 75.8721 7.43001C75.5254 7.07668 75.0754 6.90001 74.5221 6.90001C74.1554 6.90001 73.8054 7.00334 73.4721 7.21001C73.1387 7.41668 72.8654 7.69668 72.6521 8.05001C72.4454 8.40334 72.3421 8.81001 72.3421 9.27001V13.76H70.2021V5.55001H72.3421V6.93001C72.4021 6.70334 72.5621 6.46668 72.8221 6.22001C73.0887 5.96668 73.4254 5.75334 73.8321 5.58001C74.2387 5.40001 74.6787 5.31001 75.1521 5.31001Z" fill="white"/>
</svg>
